<svg  width="494" height="160" viewBox="0 0 494 160" class="redhat-logo logo">
  <path d="m 488.32625,115.3462445 c -1.81625,0 -3.28125,1.46875 -3.28125,3.283625 0,1.809125 1.465,3.2705 3.28125,3.2705 1.81,0 3.2775,-1.461375 3.2775,-3.2705 0,-1.814875 -1.4675,-3.283625 -3.2775,-3.283625 z m 3.98875,3.28125 c 0,2.19725 -1.7875,3.983375 -3.98875,3.983375 -2.19625,0 -3.98625,-1.786125 -3.98625,-3.983375 0,-2.20075 1.79,-3.986875 3.98625,-3.986875 2.20125,0 3.98875,1.786125 3.98875,3.986875 m -4.71625,-0.255 0,-1.262125 0.8375,0 c 0.42375,0 0.8875,0.09525 0.8875,0.595625 0,0.626 -0.46375,0.6665 -0.98875,0.6665 l -0.73625,0 z m 0,0.525 0.71125,0 1.07125,1.76025 0.6925,0 -1.16,-1.795875 c 0.60375,-0.07325 1.05875,-0.38825 1.05875,-1.113375 0,-0.809 -0.48125,-1.158125 -1.43875,-1.158125 l -1.5525,0 0,4.067375 0.6175,0 0,-1.76025 m -22.1725,-63.11962499 0,11.917 15.415,0 0,4.338375 -15.415,0 0,35.14887499 c 0,6.8765 2.135,11.1855 7.94375,11.1855 2.7875,0 4.75875,-0.366125 6.145,-0.847125 l 0.6475,4.141625 c -1.74625,0.732375 -4.19875,1.30025 -7.46375,1.30025 -3.94625,0 -7.21875,-1.242625 -9.33125,-3.835375 -2.44875,-2.840875 -3.28625,-7.3795 -3.28625,-12.897 l 0,-34.19674999 -9.12625,0 0,-4.338375 9.12625,0 0,-9.943875 5.345,-1.973125 m -26.645,37.095125 c -11.77625,-0.33925 -27.325,1.445375 -27.325,14.42874999 0,7.771 5.13,11.264625 10.76375,11.264625 9.01125,0 14.135,-5.5795 16.00125,-10.84325 0.38875,-1.15375 0.56,-2.3135 0.56,-3.23975 l 0,-11.61037499 z m 5.34625,16.05862499 c 0,4.275875 0.1725,8.703625 0.78875,12.84525 l -4.9275,0 -0.785,-7.749 -0.255,0 c -2.61875,4.167375 -8.645,8.9795 -17.24125,8.9795 -10.88125,0 -15.94375,-7.652375 -15.94375,-14.863375 0,-12.48287499 11.0175,-20.00237499 33.0175,-19.77049999 l 0,-1.44525 c 0,-5.350125 -1.04,-16.0205 -13.8325,-15.936125 -4.7325,0 -9.6625,1.265625 -13.575,4.029375 l -1.7025,-3.890125 c 4.94,-3.348625 10.97375,-4.672875 15.865,-4.672875 15.605,0 18.59125,11.714875 18.59125,21.377875 l 0,21.09524999 M 377.34375,66.45849451 c -4.115,0 -7.80125,1.1865 -10.89875,3.098125 -3.215,1.883375 -5.83125,4.79 -7.3875,7.80025 l -0.21625,0 0,-25.289 -5.35,-1.580125 0,71.28912499 5.35,0 0,-33.07124999 c 0,-2.197375 0.1675,-3.72075 0.7275,-5.32725 2.31125,-6.727 8.65,-12.247 16.31125,-12.247 11.07125,0 14.90375,8.877875 14.90375,18.61575 l 0,32.02974999 5.34625,0 0,-32.61962499 c 0,-20.141625 -13.66,-22.69875 -18.78625,-22.69875 m -36.1275,-19.525375 -13.65625,-3.852125 0,30.478125 -0.225,0 c -2.41625,-3.99175 -7.745,-7.038625 -15.14125,-7.038625 -12.99375,0 -24.3075,10.752 -24.22625,28.8565 0,16.60887499 10.22,27.61324999 23.12375,27.61324999 7.79875,0 14.31625,-3.715875 17.545,-9.769 l 0.24375,0 0.6125,8.555625 12.17375,0 c -0.25125,-3.672875 -0.45,-9.624 -0.45,-15.15475 l 0,-59.68899999 z m -13.65625,51.4135 c 0,1.432125 -0.10125,2.76612499 -0.41375,3.98587499 -1.37625,5.913125 -6.21125,9.724125 -11.79875,9.724125 -8.6025,0 -13.52625,-7.252375 -13.52625,-17.18012499 0,-10.025875 4.88,-17.78475 13.68125,-17.78475 6.14375,0 10.54125,4.331125 11.75,9.59375 0.2325,1.107 0.3075,2.47175 0.3075,3.5645 l 0,8.096625 m -58.0775,-9.428625 c 0.0625,-5.007375 -2.11625,-13.1665 -11.2675,-13.1665 -8.4125,0 -11.90875,7.630875 -12.52125,13.1665 l 23.78875,0 z m -23.7625,9.518 c 0.36125,9.79099999 7.94,14.07474999 16.69,14.07474999 6.2825,0 10.78,-0.983875 14.91125,-2.5015 l 2.02125,9.3995 c -4.62125,1.962875 -11.04,3.42675 -18.8825,3.42675 -17.54625,0 -27.82375,-10.835 -27.82375,-27.39162499 0,-14.913125 9.04625,-29.025875 26.42625,-29.025875 17.57,0 23.28875,14.450625 23.28875,26.27925 0,2.539125 -0.22625,4.577625 -0.48625,5.837375 l -36.145,-0.098625 m -46.7725,-13.329125 c 0,-7.233875 -0.15,-12.553625 -0.4425,-17.365625 l 11.83125,0 0.50625,10.263625 0.3875,0 c 2.65875,-7.607375 8.96,-11.484375 14.7925,-11.484375 1.33375,0 2.11125,0.05025 3.20375,0.295375 l 0,12.870125 c -1.2775,-0.251375 -2.4725,-0.388125 -4.11625,-0.388125 -6.51,0 -11.0275,4.141625 -12.2475,10.3345 -0.23,1.2045 -0.35375,2.649875 -0.35375,4.122 l 0,28.02249999 -13.67125,0 0.11,-36.66999999 m -40.27375,30.23937499 c -1.81625,0 -3.28125,1.46875 -3.28125,3.283625 0,1.809125 1.465,3.2705 3.28125,3.2705 1.81,0 3.2775,-1.461375 3.2775,-3.2705 0,-1.814875 -1.4675,-3.283625 -3.2775,-3.283625 z m 3.98875,3.28125 c 0,2.19725 -1.7875,3.983375 -3.98875,3.983375 -2.19625,0 -3.98625,-1.786125 -3.98625,-3.983375 0,-2.20075 1.79,-3.986875 3.98625,-3.986875 2.20125,0 3.98875,1.786125 3.98875,3.986875 m -4.71625,-0.255 0,-1.262125 0.8375,0 c 0.42375,0 0.8875,0.09525 0.8875,0.595625 0,0.626 -0.46375,0.6665 -0.98875,0.6665 l -0.73625,0 z m 0,0.525 0.71125,0 1.07125,1.76025 0.6925,0 -1.16,-1.795875 c 0.60375,-0.07325 1.05875,-0.38825 1.05875,-1.113375 0,-0.809 -0.48125,-1.158125 -1.43875,-1.158125 l -1.5525,0 0,4.067375 0.6175,0 0,-1.76025" />
  <path style="fill:#fff" d="m 146.0825583,123.0021904 c -3.04,-0.6972499 -6.26375,-1.137625 -9.52625,-1.137625 -5.5787501,0 -10.6552501,0.96525 -14.3983751,2.5267501 -0.412625,0.203625 -0.706,0.63575 -0.706,1.1255 0,0.18075 0.044875,0.361375 0.11275,0.515125 0.442875,1.28125 -0.28425,2.6715 -3.90825,3.46875 -5.372,1.18125 -8.764125,6.725125 -10.703625,8.565 -2.27925,2.165 -8.71574994,3.492625 -7.74699994,2.202625 0.75824995,-1.006375 3.65374994,-4.15375 5.41599994,-7.55275 1.575625,-3.04 2.979,-3.90375 4.912125,-6.804625 0.565875,-0.848125 2.765125,-3.8365 3.40525,-6.20125 0.71775,-2.304625 0.475625,-5.202625 0.7515,-6.3925 0.3955,-1.72125 2.0175,-5.45075 2.139625,-7.55625 0.07075,-1.19275 -4.974125,1.70025 -7.36725,1.70025 -2.392,0 -4.724125,-1.4355001 -6.86225,-1.538125 -2.64699994,-0.122 -4.34712494,2.0435 -6.74224994,1.664125 -1.365625,-0.21875 -2.518,-1.424875 -4.907625,-1.51275 -3.402375,-0.1245 -7.559625,1.892125 -15.36775,1.640625 -7.679625,-0.251375 -14.774875,-9.7080001 -15.742625,-11.2118751 -1.13475,-1.76275 -2.5205,-1.76275 -4.03025,-0.375 -1.51325,1.38425 -3.375,0.295375 -3.90525,-0.63475 -1.007375,-1.76025 -3.70075,-6.911625 -7.872625,-7.993125 -5.769,-1.495125 -8.689875,3.19325 -8.3105,6.92525 0.38475,3.787625 2.8325,4.849625 3.96725,6.8627501 1.132375,2.015125 1.712375,3.3115 3.84625,4.202625 1.511125,0.633875 2.074125,1.564 1.6245,2.806625 -0.395125,1.0801249 -1.96825,1.32675 -3.002,1.378 -2.19775,0.105 -3.73875,-0.49175 -4.86225,-1.2085 -1.307125,-0.836 -2.370125,-1.99225 -3.51025,-3.955125 -1.319875,-2.167875 -3.3985,-3.11275 -5.819875,-3.11275 -1.153875,0 -2.233875,0.3042499 -3.193375,0.7983749 -3.794375,1.9775001 -8.3115,3.1445 -13.1752875,3.1445 l -5.484375,0.00487 c 10.5175375,31.193875 40.0126625,53.6562501 74.7562875,53.6562501 27.75199994,0 52.15625004,-14.331 66.21375004,-36.0010001"  />
  <path style="fill:#000;" d="m 97.243625,115.7699945 c 0.404875,0.394 1.1045,1.7285 0.248625,3.4155 -0.478625,0.896 -0.99475,1.5245 -1.9175,2.26075 -1.108875,0.891125 -3.278375,1.9165 -6.2525,0.03175 -1.597125,-1.014625 -1.69575,-1.356375 -3.90325,-1.07075 -1.57775,0.2075 -2.204625,-1.38425 -1.63875,-2.71 0.567875,-1.318375 2.899,-2.388625 5.7945,-0.6895 1.303625,0.76425 3.335375,2.383875 5.11525,0.94975 0.73675,-0.59075 1.178125,-0.983875 2.201125,-2.170375 0.089283,-0.1163563 0.2660526,-0.1035724 0.3525,-0.017125 z m 48.842625,7.233875 c -3.04,-0.702125 -6.26375,-1.137625 -9.52625,-1.137625 -5.57875,0 -10.65525,0.96775 -14.398375,2.521875 -0.412625,0.207625 -0.706,0.63725 -0.706,1.129 0,0.17725 0.044875,0.36275 0.11275,0.511625 0.442875,1.28375 -0.28425,2.676375 -3.90825,3.47125 -5.372,1.181125 -8.764125,6.722625 -10.703625,8.566375 -2.27925,2.161125 -8.71575,3.493625 -7.747,2.203625 0.75825,-1.00875 3.65375,-4.15625 5.416,-7.556125 1.575625,-3.036625 2.979,-3.902875 4.912125,-6.80125 0.565875,-0.852125 2.765125,-3.840375 3.40525,-6.202125 0.71775,-2.308625 0.475625,-5.20175 0.7515,-6.3955 0.3955,-1.717375 2.0175,-5.44925 2.139625,-7.55375 0.07075,-1.19 -4.974125,1.69675 -7.36725,1.69675 -2.392,0 -4.724125,-1.42925 -6.86225,-1.53325 -2.647,-0.126875 -4.347125,2.040125 -6.74225,1.661625 -1.365625,-0.21875 -2.518,-1.420875 -4.907625,-1.511125 -3.402375,-0.126 -7.559625,1.889625 -15.36775,1.638125 C 66.90725,107.4667445 59.812,98.00974451 58.84425,96.50586951 c -1.13475,-1.766125 -2.5205,-1.766125 -4.03025,-0.377 -1.51325,1.380375 -3.375,0.294 -3.90525,-0.63375 -1.007375,-1.76275 -3.70075,-6.9165 -7.872625,-7.995625 -5.769,-1.4975 -8.689875,3.193375 -8.3105,6.923875 0.38475,3.786625 2.8325,4.848625 3.96725,6.86174999 1.132375,2.015125 1.712375,3.318875 3.84625,4.21 1.511125,0.6265 2.074125,1.5615 1.6245,2.80275 -0.395125,1.0805 -1.96825,1.328125 -3.002,1.378375 -2.19775,0.1035 -3.73875,-0.492125 -4.86225,-1.212375 -1.307125,-0.830125 -2.370125,-1.987375 -3.51025,-3.952625 -1.319875,-2.168 -3.3985,-3.111375 -5.819875,-3.111375 -1.153875,0 -2.233875,0.306125 -3.193375,0.798375 -3.794375,1.973625 -8.3115,3.1455 -13.1752875,3.1455 l -5.484375,0 C 2.446775,97.42874451 1,88.94874451 1,80.13136951 1,36.56986951 36.3125,1.259994507 79.8725,1.259994507 c 43.560625,0 78.87,35.309875003 78.87,78.871375003 0,15.808125 -4.64875,30.52637499 -12.65625,42.87249999"  />
  <path style="fill:#c00;" d="m 124.380375,59.14649451 c -0.78125,2.620625 -1.888125,5.970625 -6.819875,8.501875 -0.71875,0.36875 -0.992625,-0.23525 -0.661625,-0.80175 1.86425,-3.169875 2.194875,-3.962375 2.736875,-5.212375 0.75825,-1.828625 1.15475,-4.430125 -0.3525,-9.8535 -2.965875,-10.67425 -9.154375,-24.942 -13.652375,-29.57075 -4.339875,-4.4675 -12.205625,-5.72375 -19.3135,-3.9 -2.618125,0.67125 -7.74075,3.335 -17.23875,1.19625 -16.4405,-3.7025 -18.876,4.52875 -19.817375,8.1125 -0.945875,3.58875 -3.21,13.779625 -3.21,13.779625 -0.755875,4.152875 -1.743625,11.36975 23.78225,16.233 11.893125,2.263625 12.496125,5.336875 13.022,7.547875 0.94475,3.960875 2.453125,6.229 4.152375,7.36175 1.698125,1.13525 0,2.07275 -1.885375,2.264625 -5.064875,0.525875 -23.782625,-4.84275 -34.855875,-11.13525 -9.061,-5.536625 -9.211875,-10.522375 -7.13775,-14.751375 -13.685,-1.4795 -23.957,1.282125 -25.817875,7.761625 -3.19575,11.11825 24.443875,30.110875 55.9185,39.642125 33.03125,9.99999999 67.00425,3.017625 70.7805,-17.744125 1.7125,-9.432125 -6.23125,-16.409625 -19.629625,-19.432125 z m -41.11625,-35.3815 c -0.3850593,0.0506937 -0.4060606,-0.31245612 -0.11125,-0.45625 1.794821,-0.87542362 4.401375,-1.675 7.417,-1.9825 1.1055955,-0.1094775 2.0997852,-0.16314463 3.09125,-0.145 5.0555864,0.0925213 9.101625,2.125 9.0425,4.48625 -0.060125,2.36625 -4.205125,4.19 -9.26175,4.0775 -1.63625,-0.03875 -3.172375,-0.275 -4.494625,-0.65625 -0.15525,-0.04125 -0.269,-0.17375 -0.269,-0.33125 0,-0.1575 0.11375,-0.29375 0.272875,-0.33375 3.153875,-0.73 5.28225,-1.92125 5.132375,-3.04875 -0.19825,-1.49375 -4.32325,-2.30625 -9.215375,-1.81625 -0.535625,0.05625 -1.3268336,0.16976037 -1.604,0.20625 z m -9.53025,15.050875 c -9.109875,0.65975 -10.055625,1.643625 -11.76225,3.4605 -2.40625,2.563 -5.576125,-3.32475 -5.576125,-3.32475 -1.901375,-0.399875 -4.2075,-3.46825 -2.964375,-6.331625 1.226125,-2.83125 3.48975,-1.9825 4.19925,-1.10125 0.86225,1.07375 2.705125,2.831375 5.09625,2.767375 2.390625,-0.063 5.149875,-0.564875 8.9975,-0.564875 3.898375,0 6.521,1.456 6.6675,2.7065 0.1265,1.067875 -0.316375,2.07425 -4.65775,2.388125"  />
</svg>
